<svg width="1303" height="589" viewBox="0 0 1303 589" fill="none" xmlns="http://www.w3.org/2000/svg">
<path d="M529.338 430.661C505.018 430.661 483.738 425.221 465.498 414.341C447.258 403.461 433.018 387.941 422.778 367.781C412.858 347.621 407.898 324.101 407.898 297.221C407.898 270.341 412.858 246.821 422.778 226.661C433.018 206.501 447.258 190.981 465.498 180.101C483.738 169.221 505.018 163.781 529.338 163.781C553.338 163.781 574.458 169.221 592.698 180.101C610.938 190.981 625.018 206.501 634.938 226.661C645.178 246.821 650.298 270.341 650.298 297.221C650.298 324.101 645.178 347.621 634.938 367.781C625.018 387.941 610.938 403.461 592.698 414.341C574.458 425.221 553.338 430.661 529.338 430.661ZM529.338 386.501C550.778 386.501 567.418 378.661 579.258 362.981C591.418 346.981 597.498 325.061 597.498 297.221C597.498 269.381 591.418 247.621 579.258 231.941C567.418 215.941 550.778 207.941 529.338 207.941C507.898 207.941 491.098 215.781 478.938 231.461C466.778 247.141 460.698 269.061 460.698 297.221C460.698 325.381 466.778 347.301 478.938 362.981C491.098 378.661 507.898 386.501 529.338 386.501Z" fill="white"/>
<path d="M232.04 430.662C210.28 430.662 191.24 425.222 174.92 414.342C158.92 403.462 146.6 387.942 137.96 367.782C129.32 347.622 125 324.102 125 297.222C125 270.342 129.32 246.822 137.96 226.662C146.6 206.502 158.92 190.982 174.92 180.102C191.24 169.222 210.28 163.782 232.04 163.782C249.64 163.782 265.16 167.462 278.6 174.822C292.36 182.182 302.76 192.422 309.8 205.542V111.102C309.8 96.1899 321.888 84.1016 336.8 84.1016H360.68V424.902H339.646C325.128 424.902 313.209 413.421 312.665 398.913L312.2 386.502C305.16 400.262 294.44 411.142 280.04 419.142C265.96 426.822 249.96 430.662 232.04 430.662ZM245.48 386.502C258.92 386.502 270.44 382.982 280.04 375.942C289.96 368.902 297.32 358.822 302.12 345.702C307.24 332.262 309.8 316.102 309.8 297.222C309.8 278.342 307.24 262.182 302.12 248.742C297.32 235.302 290.12 225.222 280.52 218.502C270.92 211.462 259.24 207.942 245.48 207.942C224.68 207.942 208.2 215.942 196.04 231.942C183.88 247.622 177.8 269.382 177.8 297.222C177.8 324.742 183.88 346.502 196.04 362.502C208.52 378.502 225 386.502 245.48 386.502Z" fill="white"/>
<path d="M819.44 430.88C795.12 430.88 773.84 425.44 755.6 414.56C737.36 403.68 723.12 388.16 712.88 368C702.96 347.52 698 324 698 297.44C698 270.88 702.96 247.52 712.88 227.36C723.12 206.88 737.36 191.2 755.6 180.32C773.84 169.44 795.12 164 819.44 164C839.92 164 858.16 167.68 874.16 175.04C890.48 182.08 903.76 192.64 914 206.72C924.24 220.48 930.64 237.12 933.2 256.64L904.763 258.191C890.927 258.946 879.55 248.556 872.725 236.497C869.464 230.735 865.302 225.769 860.24 221.6C849.36 212.64 835.76 208.16 819.44 208.16C798 208.16 781.2 216 769.04 231.68C756.88 247.36 750.8 269.28 750.8 297.44C750.8 325.6 756.88 347.52 769.04 363.2C781.2 378.88 798 386.72 819.44 386.72C835.76 386.72 849.36 382.08 860.24 372.8C865.749 368.101 870.192 362.253 873.568 355.257C879.662 342.627 891.159 332.107 905.162 332.871L933.2 334.4C930.64 353.92 924.24 370.88 914 385.28C904.08 399.68 890.96 410.88 874.64 418.88C858.32 426.88 839.92 430.88 819.44 430.88Z" fill="white"/>
<path d="M1073.12 430.88C1049.76 430.88 1029.6 427.36 1012.64 420.32C996 412.96 983.04 402.88 973.76 390.08C964.8 376.96 959.68 361.76 958.4 344.48L986.935 343.183C1000.73 342.556 1011.88 353.144 1019.28 364.799C1022.04 369.136 1025.43 372.923 1029.44 376.16C1039.68 384.16 1054.24 388.16 1073.12 388.16C1089.44 388.16 1102.08 385.6 1111.04 380.48C1120.32 375.04 1124.96 366.88 1124.96 356C1124.96 349.6 1123.36 344.32 1120.16 340.16C1116.96 336 1111.04 332.48 1102.4 329.6C1093.76 326.4 1080.96 323.36 1064 320.48C1039.04 316 1019.2 310.56 1004.48 304.16C990.08 297.44 979.84 289.28 973.76 279.68C967.68 269.76 964.64 257.6 964.64 243.2C964.64 219.52 973.6 200.48 991.52 186.08C1009.44 171.36 1034.56 164 1066.88 164C1098.24 164 1122.88 171.84 1140.8 187.52C1159.04 202.88 1170.08 223.04 1173.92 248L1145.29 249.576C1131.74 250.322 1120.59 240.178 1112.91 228.988C1110.26 225.111 1107.07 221.688 1103.36 218.72C1094.08 210.72 1081.76 206.72 1066.4 206.72C1050.4 206.72 1038.24 209.92 1029.92 216.32C1021.6 222.4 1017.44 230.72 1017.44 241.28C1017.44 248.96 1019.2 255.2 1022.72 260C1026.56 264.8 1032.48 268.8 1040.48 272C1048.8 274.88 1060.16 277.44 1074.56 279.68C1101.12 284.16 1121.76 289.6 1136.48 296C1151.2 302.4 1161.76 310.4 1168.16 320C1174.56 329.28 1177.76 341.12 1177.76 355.52C1177.76 379.2 1168 397.76 1148.48 411.2C1129.28 424.32 1104.16 430.88 1073.12 430.88Z" fill="white"/>
</svg>
