<svg width="1345" height="589" viewBox="0 0 1345 589" fill="none" xmlns="http://www.w3.org/2000/svg">
<path d="M240.257 455.06C216.897 455.06 196.737 451.54 179.777 444.5C163.137 437.14 150.177 427.06 140.897 414.26C131.937 401.14 126.817 385.94 125.537 368.66L154.073 367.363C167.868 366.736 179.014 377.324 186.422 388.979C189.178 393.317 192.563 397.104 196.577 400.34C206.817 408.34 221.377 412.34 240.257 412.34C256.577 412.34 269.217 409.78 278.177 404.66C287.457 399.22 292.097 391.06 292.097 380.18C292.097 373.78 290.497 368.5 287.297 364.34C284.097 360.18 278.177 356.66 269.537 353.78C260.897 350.58 248.097 347.54 231.137 344.66C206.177 340.18 186.337 334.74 171.617 328.34C157.217 321.62 146.977 313.46 140.897 303.86C134.817 293.94 131.777 281.78 131.777 267.38C131.777 243.7 140.737 224.66 158.657 210.26C176.577 195.54 201.697 188.18 234.017 188.18C265.377 188.18 290.017 196.02 307.937 211.7C326.177 227.06 337.217 247.22 341.057 272.18L312.426 273.756C298.877 274.502 287.726 264.359 280.051 253.168C277.392 249.292 274.208 245.869 270.497 242.9C261.217 234.9 248.897 230.9 233.537 230.9C217.537 230.9 205.377 234.1 197.057 240.5C188.737 246.58 184.577 254.9 184.577 265.46C184.577 273.14 186.337 279.38 189.857 284.18C193.697 288.98 199.617 292.98 207.617 296.18C215.937 299.06 227.297 301.62 241.697 303.86C268.257 308.34 288.897 313.78 303.617 320.18C318.337 326.58 328.897 334.58 335.297 344.18C341.697 353.46 344.897 365.3 344.897 379.7C344.897 403.38 335.137 421.94 315.617 435.38C296.417 448.5 271.297 455.06 240.257 455.06Z" fill="black"/>
<path d="M476.237 449.3C451.917 449.3 433.997 443.7 422.477 432.5C410.957 421.3 405.197 403.86 405.197 380.18V133.94H429.077C443.989 133.94 456.077 146.029 456.077 160.94V376.34C456.077 387.86 458.477 396.02 463.277 400.82C468.397 405.3 476.397 407.54 487.277 407.54H496.757C511.669 407.54 523.757 419.629 523.757 434.54V449.3H476.237ZM366.317 220.94C366.317 206.029 378.405 193.94 393.317 193.94H523.757V208.7C523.757 223.612 511.669 235.7 496.757 235.7H366.317V220.94Z" fill="black"/>
<path d="M666.527 455.06C642.207 455.06 620.927 449.62 602.687 438.74C584.447 427.86 570.207 412.34 559.967 392.18C550.047 372.02 545.087 348.5 545.087 321.62C545.087 294.74 550.047 271.22 559.967 251.06C570.207 230.9 584.447 215.38 602.687 204.5C620.927 193.62 642.207 188.18 666.527 188.18C690.527 188.18 711.647 193.62 729.887 204.5C748.127 215.38 762.207 230.9 772.127 251.06C782.367 271.22 787.487 294.74 787.487 321.62C787.487 348.5 782.367 372.02 772.127 392.18C762.207 412.34 748.127 427.86 729.887 438.74C711.647 449.62 690.527 455.06 666.527 455.06ZM666.527 410.9C687.967 410.9 704.607 403.06 716.447 387.38C728.607 371.38 734.687 349.46 734.687 321.62C734.687 293.78 728.607 272.02 716.447 256.34C704.607 240.34 687.967 232.34 666.527 232.34C645.087 232.34 628.287 240.18 616.127 255.86C603.967 271.54 597.887 293.46 597.887 321.62C597.887 349.78 603.967 371.7 616.127 387.38C628.287 403.06 645.087 410.9 666.527 410.9Z" fill="black"/>
<path d="M832.086 193.94H852.401C867.014 193.94 878.976 205.567 879.39 220.175L880.566 261.62L876.246 260.18C879.766 237.46 886.806 220.82 897.366 210.26C907.926 199.38 922.486 193.94 941.046 193.94H965.526V215.06C965.526 228.58 954.566 239.54 941.046 239.54C927.926 239.54 917.046 241.78 908.406 246.26C900.086 250.42 893.686 256.82 889.206 265.46C885.046 274.1 882.966 285.14 882.966 298.58V422.3C882.966 437.212 870.878 449.3 855.966 449.3H832.086V193.94Z" fill="black"/>
<path d="M1103.41 455.06C1079.09 455.06 1057.81 449.62 1039.57 438.74C1021.33 427.86 1007.25 412.34 997.33 392.18C987.41 372.02 982.45 348.5 982.45 321.62C982.45 295.06 987.41 271.7 997.33 251.54C1007.25 231.06 1021.17 215.38 1039.09 204.5C1057.01 193.62 1077.97 188.18 1101.97 188.18C1125.33 188.18 1145.81 193.62 1163.41 204.5C1181.01 215.06 1194.61 230.58 1204.21 251.06C1214.13 271.22 1219.09 295.38 1219.09 323.54V336.5H1035.73C1036.69 360.82 1043.09 379.38 1054.93 392.18C1067.09 404.98 1083.41 411.38 1103.89 411.38C1118.93 411.38 1131.41 408.02 1141.33 401.3C1145.69 398.346 1149.49 394.836 1152.74 390.769C1160.39 381.191 1170.97 373.043 1183.2 373.821L1215.25 375.86C1208.53 400.18 1195.09 419.54 1174.93 433.94C1155.09 448.02 1131.25 455.06 1103.41 455.06ZM1164.85 298.1C1163.25 276.02 1156.85 259.38 1145.65 248.18C1134.77 236.98 1120.21 231.38 1101.97 231.38C1083.73 231.38 1068.69 237.14 1056.85 248.66C1045.33 260.18 1038.29 276.66 1035.73 298.1H1164.85Z" fill="black"/>
</svg>
