<svg width="1895" height="589" viewBox="0 0 1895 589" fill="none" xmlns="http://www.w3.org/2000/svg">
<path d="M246.53 455.06C222.21 455.06 200.93 449.62 182.69 438.74C164.45 427.86 150.21 412.34 139.97 392.18C130.05 371.7 125.09 348.18 125.09 321.62C125.09 295.06 130.05 271.7 139.97 251.54C150.21 231.06 164.45 215.38 182.69 204.5C200.93 193.62 222.21 188.18 246.53 188.18C267.01 188.18 285.25 191.86 301.25 199.22C317.57 206.26 330.85 216.82 341.09 230.9C351.33 244.66 357.73 261.3 360.29 280.82L331.853 282.372C318.017 283.126 306.64 272.737 299.815 260.678C296.554 254.915 292.392 249.949 287.33 245.78C276.45 236.82 262.85 232.34 246.53 232.34C225.09 232.34 208.29 240.18 196.13 255.86C183.97 271.54 177.89 293.46 177.89 321.62C177.89 349.78 183.97 371.7 196.13 387.38C208.29 403.06 225.09 410.9 246.53 410.9C262.85 410.9 276.45 406.26 287.33 396.98C292.839 392.281 297.281 386.434 300.657 379.438C306.752 366.808 318.249 356.287 332.252 357.051L360.29 358.58C357.73 378.1 351.33 395.06 341.09 409.46C331.17 423.86 318.05 435.06 301.73 443.06C285.41 451.06 267.01 455.06 246.53 455.06Z" fill="black"/>
<path d="M506.93 455.06C482.61 455.06 461.33 449.62 443.09 438.74C424.85 427.86 410.61 412.34 400.37 392.18C390.45 372.02 385.49 348.5 385.49 321.62C385.49 294.74 390.45 271.22 400.37 251.06C410.61 230.9 424.85 215.38 443.09 204.5C461.33 193.62 482.61 188.18 506.93 188.18C530.93 188.18 552.05 193.62 570.29 204.5C588.53 215.38 602.61 230.9 612.53 251.06C622.77 271.22 627.89 294.74 627.89 321.62C627.89 348.5 622.77 372.02 612.53 392.18C602.61 412.34 588.53 427.86 570.29 438.74C552.05 449.62 530.93 455.06 506.93 455.06ZM506.93 410.9C528.37 410.9 545.01 403.06 556.85 387.38C569.01 371.38 575.09 349.46 575.09 321.62C575.09 293.78 569.01 272.02 556.85 256.34C545.01 240.34 528.37 232.34 506.93 232.34C485.49 232.34 468.69 240.18 456.53 255.86C444.37 271.54 438.29 293.46 438.29 321.62C438.29 349.78 444.37 371.7 456.53 387.38C468.69 403.06 485.49 410.9 506.93 410.9Z" fill="black"/>
<path d="M672.489 193.94H692.798C707.414 193.94 719.376 205.57 719.788 220.18L720.969 262.1L714.729 258.74C718.889 235.06 728.329 217.46 743.049 205.94C758.089 194.1 776.329 188.18 797.769 188.18C825.289 188.18 846.569 197.14 861.609 215.06C876.649 232.66 884.168 256.02 884.168 285.14V449.3H860.289C845.377 449.3 833.289 437.212 833.289 422.3V300.5C833.289 277.46 829.449 260.18 821.769 248.66C814.089 236.82 801.449 230.9 783.849 230.9C765.289 230.9 750.568 236.98 739.688 249.14C728.808 261.3 723.369 278.42 723.369 300.5V449.3H672.489V193.94Z" fill="black"/>
<path d="M911.667 193.94H946.606C958.15 193.94 968.417 201.28 972.153 212.204L1035.51 397.46L1098.86 212.204C1102.6 201.28 1112.86 193.94 1124.41 193.94H1159.83L1073.18 431.55C1069.29 442.209 1059.16 449.3 1047.81 449.3H1004.79L911.667 193.94Z" fill="black"/>
<path d="M1289.99 455.06C1265.67 455.06 1244.39 449.62 1226.15 438.74C1207.91 427.86 1193.83 412.34 1183.91 392.18C1173.99 372.02 1169.03 348.5 1169.03 321.62C1169.03 295.06 1173.99 271.7 1183.91 251.54C1193.83 231.06 1207.75 215.38 1225.67 204.5C1243.59 193.62 1264.55 188.18 1288.55 188.18C1311.91 188.18 1332.39 193.62 1349.99 204.5C1367.59 215.06 1381.19 230.58 1390.79 251.06C1400.71 271.22 1405.67 295.38 1405.67 323.54V336.5H1222.31C1223.27 360.82 1229.67 379.38 1241.51 392.18C1253.67 404.98 1269.99 411.38 1290.47 411.38C1305.51 411.38 1317.99 408.02 1327.91 401.3C1332.27 398.346 1336.08 394.836 1339.33 390.769C1346.97 381.191 1357.55 373.043 1369.79 373.821L1401.83 375.86C1395.11 400.18 1381.67 419.54 1361.51 433.94C1341.67 448.02 1317.83 455.06 1289.99 455.06ZM1351.43 298.1C1349.83 276.02 1343.43 259.38 1332.23 248.18C1321.35 236.98 1306.79 231.38 1288.55 231.38C1270.31 231.38 1255.27 237.14 1243.43 248.66C1231.91 260.18 1224.87 276.66 1222.31 298.1H1351.43Z" fill="black"/>
<path d="M1450.41 193.94H1470.72C1485.34 193.94 1497.3 205.567 1497.71 220.175L1498.89 261.62L1494.57 260.18C1498.09 237.46 1505.13 220.82 1515.69 210.26C1526.25 199.38 1540.81 193.94 1559.37 193.94H1583.85V215.06C1583.85 228.58 1572.89 239.54 1559.37 239.54C1546.25 239.54 1535.37 241.78 1526.73 246.26C1518.41 250.42 1512.01 256.82 1507.53 265.46C1503.37 274.1 1501.29 285.14 1501.29 298.58V422.3C1501.29 437.212 1489.2 449.3 1474.29 449.3H1450.41V193.94Z" fill="black"/>
<path d="M1722.48 449.3C1698.16 449.3 1680.24 443.7 1668.72 432.5C1657.2 421.3 1651.44 403.86 1651.44 380.18V133.94H1675.32C1690.23 133.94 1702.32 146.029 1702.32 160.94V376.34C1702.32 387.86 1704.72 396.02 1709.52 400.82C1714.64 405.3 1722.64 407.54 1733.52 407.54H1743C1757.91 407.54 1770 419.629 1770 434.54V449.3H1722.48ZM1612.56 220.94C1612.56 206.029 1624.65 193.94 1639.56 193.94H1770V208.7C1770 223.612 1757.91 235.7 1743 235.7H1612.56V220.94Z" fill="black"/>
</svg>
